<mxfile host="65bd71144e">
    <diagram id="yTsE1gZNFKZx4GLRHV2A" name="Page-1">
        <mxGraphModel dx="973" dy="2082" grid="1" gridSize="10" guides="1" tooltips="1" connect="1" arrows="1" fold="1" page="1" pageScale="1" pageWidth="850" pageHeight="1100" math="0" shadow="0">
            <root>
                <mxCell id="0"/>
                <mxCell id="1" parent="0"/>
                <mxCell id="3" value="BOOK" style="rounded=1;whiteSpace=wrap;html=1;" vertex="1" parent="1">
                    <mxGeometry x="150" y="650" width="250" height="90" as="geometry"/>
                </mxCell>
                <mxCell id="4" value="Author" style="rounded=1;whiteSpace=wrap;html=1;" vertex="1" parent="1">
                    <mxGeometry x="450" y="650" width="255" height="90" as="geometry"/>
                </mxCell>
                <mxCell id="6" value="Kindle Notes App" style="shape=step;perimeter=stepPerimeter;whiteSpace=wrap;html=1;fixedSize=1;" vertex="1" parent="1">
                    <mxGeometry x="206.25" y="-10" width="397.5" height="80" as="geometry"/>
                </mxCell>
                <mxCell id="10" value="" style="rounded=0;whiteSpace=wrap;html=1;direction=south;" vertex="1" parent="1">
                    <mxGeometry x="50" y="90" width="180" height="510" as="geometry"/>
                </mxCell>
                <mxCell id="11" value="Title&amp;nbsp;" style="rounded=1;whiteSpace=wrap;html=1;" vertex="1" parent="1">
                    <mxGeometry x="80" y="110" width="120" height="60" as="geometry"/>
                </mxCell>
                <mxCell id="13" value="Title&amp;nbsp;" style="rounded=1;whiteSpace=wrap;html=1;" vertex="1" parent="1">
                    <mxGeometry x="80" y="190" width="120" height="60" as="geometry"/>
                </mxCell>
                <mxCell id="14" value="Title&amp;nbsp;" style="rounded=1;whiteSpace=wrap;html=1;" vertex="1" parent="1">
                    <mxGeometry x="80" y="270" width="120" height="60" as="geometry"/>
                </mxCell>
                <mxCell id="15" value="Title&amp;nbsp;" style="rounded=1;whiteSpace=wrap;html=1;" vertex="1" parent="1">
                    <mxGeometry x="80" y="350" width="120" height="60" as="geometry"/>
                </mxCell>
                <mxCell id="16" value="Title&amp;nbsp;" style="rounded=1;whiteSpace=wrap;html=1;" vertex="1" parent="1">
                    <mxGeometry x="80" y="430" width="120" height="60" as="geometry"/>
                </mxCell>
                <mxCell id="17" value="Title&amp;nbsp;" style="rounded=1;whiteSpace=wrap;html=1;" vertex="1" parent="1">
                    <mxGeometry x="80" y="510" width="120" height="60" as="geometry"/>
                </mxCell>
                <mxCell id="22" value="" style="rounded=0;whiteSpace=wrap;html=1;" vertex="1" parent="1">
                    <mxGeometry x="280" y="90" width="450" height="95" as="geometry"/>
                </mxCell>
                <mxCell id="23" value="Your Kindle notes for:" style="rounded=1;whiteSpace=wrap;html=1;" vertex="1" parent="1">
                    <mxGeometry x="340" y="100" width="165" height="30" as="geometry"/>
                </mxCell>
                <mxCell id="24" value="By Author" style="rounded=1;whiteSpace=wrap;html=1;" vertex="1" parent="1">
                    <mxGeometry x="340" y="140" width="165" height="30" as="geometry"/>
                </mxCell>
                <mxCell id="36" value="Booke notes" style="rounded=0;whiteSpace=wrap;html=1;" vertex="1" parent="1">
                    <mxGeometry x="280" y="200" width="450" height="90" as="geometry"/>
                </mxCell>
                <mxCell id="37" value="Page Number" style="rounded=1;whiteSpace=wrap;html=1;" vertex="1" parent="1">
                    <mxGeometry x="300" y="210" width="90" height="30" as="geometry"/>
                </mxCell>
                <mxCell id="38" value="Booke notes" style="rounded=0;whiteSpace=wrap;html=1;" vertex="1" parent="1">
                    <mxGeometry x="280" y="300" width="450" height="90" as="geometry"/>
                </mxCell>
                <mxCell id="39" value="Booke notes" style="rounded=0;whiteSpace=wrap;html=1;" vertex="1" parent="1">
                    <mxGeometry x="280" y="400" width="450" height="90" as="geometry"/>
                </mxCell>
                <mxCell id="40" value="Booke notes" style="rounded=0;whiteSpace=wrap;html=1;" vertex="1" parent="1">
                    <mxGeometry x="280" y="510" width="450" height="90" as="geometry"/>
                </mxCell>
                <mxCell id="43" value="Page Number" style="rounded=1;whiteSpace=wrap;html=1;" vertex="1" parent="1">
                    <mxGeometry x="300" y="310" width="90" height="30" as="geometry"/>
                </mxCell>
                <mxCell id="44" value="Page Number" style="rounded=1;whiteSpace=wrap;html=1;" vertex="1" parent="1">
                    <mxGeometry x="300" y="410" width="90" height="30" as="geometry"/>
                </mxCell>
                <mxCell id="45" value="Page Number" style="rounded=1;whiteSpace=wrap;html=1;" vertex="1" parent="1">
                    <mxGeometry x="300" y="520" width="90" height="30" as="geometry"/>
                </mxCell>
            </root>
        </mxGraphModel>
    </diagram>
</mxfile>